# xmcd
#
# Track frame offsets:
#	150
#	18479
#	38441
#	48048
#	64103
#	77634
#	94780
#	111800
#	126478
#	139223
#	151461
#	163851
#	171469
#	179792
#
# Disc length: 2582 seconds
# Revision: 0
# Processed by: cddbd v1.5.2PL0 Copyright (c) Steve Scherf et al.
# Submitted via: dBpowerAMP V12.0
#
DISCID=bf0a140e
DTITLE=Tom Neal - Banjoland
DYEAR=2013
DGENRE=Country
TTITLE0=Banjoland
TTITLE1=Coal Miner's Gold
TTITLE2=Walt's Breakdown
TTITLE3=Charmaine
TTITLE4=Cincinnati Rag
TTITLE5=Got Enough Love to Hold You On
TTITLE6=New Camptown Races
TTITLE7=Reuben
TTITLE8=Shenandoah Breakdown
TTITLE9=Calvary
TTITLE10=Miller's Reel
TTITLE11=Miss McLeod's Reel
TTITLE12=Tyler's Tune
TTITLE13=In His Arms I'm Not Afraid
EXTD=
EXTT0=
EXTT1=
EXTT2=
EXTT3=
EXTT4=
EXTT5=
EXTT6=
EXTT7=
EXTT8=
EXTT9=
EXTT10=
EXTT11=
EXTT12=
EXTT13=
PLAYORDER=
